<svg xmlns="http://www.w3.org/2000/svg" xml:space="preserve" id="Layer_1" version="1.1" viewBox="0 0 512 512"><style>.st0{fill:#2f9dd9}</style><g id="XMLID_1003_"><path id="XMLID_1012_" d="M124.1 328.9h-14.7v24h14.7c4.2 0 7.4-1.1 9.5-3.4 2.1-2.2 3.2-5.1 3.2-8.6s-1.1-6.3-3.2-8.6c-2.2-2.3-5.3-3.4-9.5-3.4" class="st0"/><path id="XMLID_1007_" d="M365.6 285.9H40.3v133.9h276.3zm-223.9 70.3c-4.3 3.8-10.1 5.8-17.6 5.8h-14.7v25.8H98v-68h26.1c7.5 0 13.4 1.9 17.6 5.8 4.3 3.9 6.4 9 6.4 15.3 0 6.4-2.1 11.5-6.4 15.3m73.2 31.6h-11.4l-30.1-49-.3.1v48.9h-11.4v-68h11.4l30.1 49 .3-.1v-48.9h11.4zm67.6-9.2c-1.9 2.6-4.9 5-8.9 7.1-4.1 2.1-9.4 3.1-15.9 3.1q-12 0-19.8-7.8t-7.8-20.1v-14.2q0-12.3 7.5-20.1c5-5.2 11.5-7.8 19.3-7.8 7.9 0 14.1 2 18.5 6s6.6 9.2 6.4 15.6l-.1.3H271q0-5.7-3.6-9.3c-3.6-3.6-5.8-3.5-10.3-3.5-4.7 0-8.5 1.8-11.4 5.3s-4.3 8-4.3 13.4v14.3q0 8.25 4.5 13.5c3 3.5 6.9 5.3 11.8 5.3 3.6 0 6.5-.4 8.6-1.2q3.15-1.2 4.8-3v-14.1h-14.3v-8.5h25.6v25.7z" class="st0"/><path id="XMLID_1006_" d="M352.9 6H107.4c-7.3 0-13.3 6-13.3 13.3v256.8h26.6V32.6h232.2v92.2h92.2v354.6H120.7v-49.8H94.1v63.1c0 7.3 6 13.3 13.3 13.3h351c7.3 0 13.3-6 13.3-13.3V124.8z" class="st0"/><path id="XMLID_1005_" d="M156.2 171.4h253.4V191H156.2z" class="st0"/><path id="XMLID_1004_" d="M156.2 209.5h213.3v19.6H156.2z" class="st0"/></g></svg>