<svg xmlns="http://www.w3.org/2000/svg" xml:space="preserve" id="Layer_1" version="1.1" viewBox="0 0 512 512"><style>.st0{fill:#11b24c}</style><g id="XMLID_918_"><path id="XMLID_922_" d="M365.6 285.9H40.3v133.9h276.3zm-222.7 97.8c-4.4 3.4-10.2 5-17.4 5-6.9 0-12.9-1.8-18.1-5.5q-7.65-5.55-7.5-15.6l.1-.3h10.9c0 4.1 1.4 7.2 4.2 9.2 2.8 2.1 6.3 3.1 10.3 3.1s7.1-.8 9.4-2.5q3.3-2.55 3.3-6.9c0-2.8-1-5.2-3-7s-5.6-3.4-10.7-4.9c-7.3-2-13-4.7-16.9-8q-6-4.95-6-12.9c0-5.5 2.2-10 6.5-13.6 4.4-3.6 10-5.3 16.8-5.3 7.4 0 13.2 2 17.6 5.9s6.5 8.8 6.4 14.6l-.1.3h-10.9c0-3.6-1.2-6.4-3.6-8.6-2.4-2.1-5.6-3.2-9.5-3.2-3.8 0-6.8.9-8.9 2.7s-3.1 4.1-3.1 7c0 2.6 1.1 4.8 3.4 6.5s6 3.3 11.3 4.8c7.1 2 12.6 4.7 16.3 8.2 3.7 3.4 5.6 7.8 5.6 13.2.2 5.9-2 10.4-6.4 13.8m49.7 4.1h-10.8l-24.3-68h12.1l16.2 49.6 1.2 5h.3l1.2-4.9 16.3-49.7h12.1zm84.8-9.2c-1.9 2.6-4.9 5-8.9 7.1-4.1 2.1-9.4 3.1-15.9 3.1q-12 0-19.8-7.8t-7.8-20.1v-14.2q0-12.3 7.5-20.1c5-5.2 11.5-7.8 19.3-7.8 7.9 0 14.1 2 18.5 6s6.6 9.2 6.4 15.6l-.1.3h-10.8q0-5.7-3.6-9.3c-3.6-3.6-5.8-3.5-10.3-3.5-4.7 0-8.5 1.8-11.4 5.3s-4.3 8-4.3 13.4v14.3q0 8.25 4.5 13.5c3 3.5 6.9 5.3 11.8 5.3 3.6 0 6.5-.4 8.6-1.2q3.15-1.2 4.8-3v-14.1h-14.3v-8.5h25.6v25.7z" class="st0"/><path id="XMLID_921_" d="M352.9 6H107.4c-7.3 0-13.3 6-13.3 13.3v256.8h26.6V32.6h232.2v92.2h92.2v354.6H120.7v-49.8H94.1v63.1c0 7.3 6 13.3 13.3 13.3h351c7.3 0 13.3-6 13.3-13.3V124.8z" class="st0"/><path id="XMLID_920_" d="M156.2 171.4h253.4V191H156.2z" class="st0"/><path id="XMLID_919_" d="M156.2 209.5h213.3v19.6H156.2z" class="st0"/></g></svg>